<svg width="28" height="28" viewBox="0 0 28 28" fill="none" xmlns="http://www.w3.org/2000/svg">
<circle cx="14" cy="14" r="14" fill="url(#paint0_linear_152_5974)"/>
<path fill-rule="evenodd" clip-rule="evenodd" d="M10.6567 16.2037C10.3187 16.0432 9.99695 15.8465 9.69935 15.6182C9.40418 15.3916 9.13078 15.1335 8.88802 14.8504C8.47913 14.3746 8.16057 13.8375 7.93959 13.2536C7.71054 12.6495 7.59521 12.0124 7.59521 11.3599C7.59521 10.6357 7.73716 9.93407 8.01701 9.27275C8.21863 8.79611 8.48881 8.35092 8.81947 7.9501C9.14771 7.55169 9.5316 7.20329 9.95904 6.91456C10.8446 6.31614 11.8809 6 12.9552 6C13.6786 6 14.3802 6.14194 15.0399 6.4218C15.6384 6.67503 16.1811 7.0315 16.6537 7.48233C17.011 7.82348 17.3175 8.20737 17.5667 8.62836L16.2577 9.94294L13.8794 12.3318C13.5955 12.1922 13.2802 12.118 12.9544 12.118C12.3946 12.118 11.868 12.3358 11.472 12.7318C11.076 13.1278 10.8583 13.6544 10.8583 14.2141C10.8583 14.7738 11.0768 15.3005 11.4728 15.6965L11.4752 15.6989C11.7067 15.9295 11.9825 16.0989 12.2825 16.2005V16.678C12.1051 16.6562 11.9301 16.6255 11.7575 16.586C11.3785 16.4997 11.0083 16.3707 10.6567 16.2037ZM16.7353 10.4162C17.5934 10.7824 18.3499 11.3413 18.9491 12.0389C19.8564 13.0946 20.4049 14.4672 20.4049 15.9681C20.4049 16.8012 20.2355 17.594 19.9306 18.3158C19.0145 20.4805 16.8708 21.9999 14.3723 21.9999C13.8836 21.9999 13.4093 21.9418 12.9545 21.8321C11.0971 21.3845 9.57367 20.0764 8.83089 18.3537L10.3681 16.8101C11.152 17.1827 12.0286 17.3916 12.9545 17.3916V15.6375C12.5625 15.6375 12.2069 15.4786 11.9496 15.2221L11.948 15.2205C11.6907 14.9624 11.531 14.6068 11.531 14.2132C11.531 13.8204 11.6899 13.4648 11.948 13.2067C12.2053 12.9494 12.5609 12.7897 12.9545 12.7897C13.3472 12.7897 13.7021 12.9478 13.9594 13.2043L16.7353 10.4162Z" fill="white"/>
<defs>
<linearGradient id="paint0_linear_152_5974" x1="14" y1="-9.58091" x2="14" y2="36.5967" gradientUnits="userSpaceOnUse">
<stop stop-color="#1E88E5"/>
<stop offset="1" stop-color="#0066FF"/>
</linearGradient>
</defs>
</svg>
