<svg width="165" height="57" viewBox="0 0 165 57" fill="none" xmlns="http://www.w3.org/2000/svg">
<g clip-path="url(#clip0_871_5077)">
<path d="M70.896 19.2209L67.508 17.7929C65.688 17.0369 64.96 16.5049 64.96 15.3849C64.96 14.0129 66.024 13.5089 67.592 13.5089C69.86 13.5089 71.064 14.6569 72.436 16.6169L77.56 12.6969C75.824 9.30894 72.66 6.78894 67.508 6.78894C61.544 6.78894 57.232 10.2609 57.232 15.4689C57.232 19.6129 59.976 22.2169 64.652 24.3169L67.676 25.6609C69.776 26.5569 70.644 27.0049 70.644 28.3769C70.644 29.8049 69.608 30.5049 67.62 30.5049C64.288 30.5049 62.552 28.6289 61.096 26.7249L55.944 30.6449C58.044 34.5929 62.272 37.2249 67.648 37.2249C73.696 37.2249 78.4 33.8369 78.4 28.0689C78.428 23.7569 75.824 21.2929 70.896 19.2209Z" fill="url(#paint0_linear_871_5077)"/>
<path d="M101.136 18.5209H90.412V7.79694H82.768V37.1409H90.412V25.4089H101.136V37.1409H108.78V7.79694H101.136V18.5209Z" fill="url(#paint1_linear_871_5077)"/>
<path d="M127.904 26.9489C127.904 28.8529 126.532 30.1969 124.712 30.1969C122.808 30.1969 121.464 28.8529 121.464 26.9489V14.4609H113.82V26.3329C113.82 32.9129 118.44 37.2249 124.712 37.2249C130.928 37.2249 135.576 32.9129 135.576 26.3329V14.4609H127.932V26.9489H127.904Z" fill="url(#paint2_linear_871_5077)"/>
<path d="M153.692 13.9289C151.284 13.9289 149.38 14.6289 148.008 16.0289V3.62494L140.364 3.70894V37.2249H147.336V34.4249C148.764 36.3009 150.892 37.2249 153.692 37.2249C159.908 37.2249 164.36 32.3809 164.36 25.6049C164.388 18.8009 159.936 13.9289 153.692 13.9289ZM152.18 30.2809C150.052 30.2809 147.868 28.8529 147.868 25.6049C147.868 22.4129 150.052 20.8449 152.18 20.8449C154.392 20.8449 156.548 22.4409 156.548 25.5489C156.548 28.6849 154.504 30.2809 152.18 30.2809Z" fill="url(#paint3_linear_871_5077)"/>
<path fill-rule="evenodd" clip-rule="evenodd" d="M7.364 34.2009C8.4 35.0129 9.52 35.6849 10.724 36.2449C11.956 36.8329 13.244 37.2809 14.588 37.5889C15.204 37.7289 15.792 37.8409 16.436 37.9249V36.2449C15.372 35.8809 14.42 35.2929 13.608 34.4809C12.208 33.0809 11.452 31.2609 11.452 29.3009C11.452 27.3409 12.208 25.4929 13.608 24.1209C14.98 22.7489 16.828 21.9649 18.788 21.9649C19.936 21.9649 21.028 22.2169 22.036 22.7209L30.352 14.3489L34.944 9.75692C34.076 8.27292 33.012 6.92892 31.752 5.75292C30.1 4.18492 28.196 2.92492 26.096 2.02892C23.744 1.04892 21.28 0.544922 18.76 0.544922C15.008 0.544922 11.368 1.66492 8.26 3.73692C6.776 4.74492 5.432 5.97692 4.284 7.34892C3.136 8.74892 2.184 10.3169 1.484 11.9689C0.504 14.3209 0 16.7569 0 19.3049C0 21.6009 0.392 23.8129 1.204 25.9409C1.988 27.9849 3.08 29.8609 4.536 31.5409C5.376 32.5209 6.328 33.4169 7.364 34.2009Z" fill="url(#paint4_linear_871_5077)"/>
<path fill-rule="evenodd" clip-rule="evenodd" d="M39.732 21.6849C37.632 19.2489 35 17.2889 31.976 16.0009L22.288 25.7449C21.392 24.8489 20.132 24.2889 18.76 24.2889C17.388 24.2889 16.128 24.8489 15.232 25.7449C14.336 26.6409 13.776 27.9009 13.776 29.2729C13.776 30.6449 14.336 31.9049 15.232 32.8009C16.128 33.6969 17.388 34.2569 18.76 34.2569V40.3889C15.512 40.3889 12.46 39.6609 9.716 38.3449L4.34 43.7489C6.944 49.7689 12.264 54.3609 18.76 55.9289C20.356 56.3209 22.008 56.5169 23.716 56.5169C32.452 56.5169 39.956 51.1969 43.176 43.6089C44.24 41.0889 44.828 38.3169 44.828 35.4049C44.828 30.1689 42.924 25.3809 39.732 21.6849Z" fill="url(#paint5_linear_871_5077)"/>
<path d="M58.212 46.7449V45.0369H64.96V46.7449H62.608V52.7929H60.564V46.7449H58.212Z" fill="url(#paint6_linear_871_5077)"/>
<path d="M66.164 52.7929V45.0369H71.736V46.7449H68.264V48.0609H71.456V49.7689H68.264V51.0849H71.736V52.7929H66.164Z" fill="url(#paint7_linear_871_5077)"/>
<path d="M80.416 47.9489H78.288C78.26 47.7809 78.232 47.6129 78.176 47.4729C78.12 47.3329 78.036 47.1929 77.924 47.1089C77.812 46.9969 77.672 46.9129 77.504 46.8569C77.336 46.8009 77.168 46.7729 76.972 46.7729C76.608 46.7729 76.328 46.8569 76.076 47.0249C75.824 47.1929 75.656 47.4449 75.516 47.7529C75.404 48.0609 75.32 48.4529 75.32 48.9009C75.32 49.3769 75.376 49.7689 75.516 50.0769C75.656 50.3849 75.824 50.6369 76.076 50.8049C76.328 50.9729 76.608 51.0569 76.944 51.0569C77.14 51.0569 77.308 51.0289 77.476 50.9729C77.616 50.9169 77.756 50.8609 77.868 50.7489C77.98 50.6649 78.064 50.5529 78.148 50.4129C78.232 50.2729 78.26 50.1329 78.288 49.9649L80.416 49.9929C80.388 50.3289 80.304 50.6649 80.136 51.0009C79.968 51.3369 79.744 51.6449 79.464 51.9249C79.184 52.2049 78.82 52.4289 78.372 52.6249C77.952 52.7929 77.448 52.8769 76.888 52.8769C76.188 52.8769 75.544 52.7369 74.984 52.4289C74.424 52.1209 73.976 51.6729 73.64 51.0849C73.304 50.4969 73.164 49.7689 73.164 48.9009C73.164 48.0329 73.332 47.3049 73.668 46.7169C74.004 46.1289 74.452 45.6809 75.012 45.3729C75.572 45.0649 76.216 44.9249 76.888 44.9249C77.364 44.9249 77.84 44.9809 78.232 45.1209C78.652 45.2609 79.016 45.4569 79.324 45.7089C79.632 45.9609 79.884 46.2689 80.08 46.6609C80.276 47.0529 80.388 47.4729 80.416 47.9489Z" fill="url(#paint8_linear_871_5077)"/>
<path d="M81.816 52.7929V45.0369H83.916V48.0609H86.688V45.0369H88.788V52.7929H86.688V49.7689H83.916V52.7929H81.816Z" fill="url(#paint9_linear_871_5077)"/>
<path d="M96.908 45.0369V52.7929H95.144L92.372 48.7329H92.316V52.7929H90.216V45.0369H92.008L94.752 49.0969H94.808V45.0369H96.908Z" fill="url(#paint10_linear_871_5077)"/>
<path d="M105.84 48.9289C105.84 49.7969 105.672 50.5249 105.336 51.1129C105 51.7009 104.552 52.1489 103.992 52.4569C103.432 52.7649 102.788 52.9049 102.088 52.9049C101.388 52.9049 100.744 52.7649 100.184 52.4569C99.624 52.1489 99.176 51.7009 98.84 51.1129C98.504 50.5249 98.336 49.7969 98.336 48.9289C98.336 48.0609 98.504 47.3329 98.84 46.7449C99.176 46.1569 99.624 45.7089 100.184 45.4009C100.744 45.0929 101.388 44.9529 102.088 44.9529C102.788 44.9529 103.432 45.0929 103.992 45.4009C104.552 45.7089 105 46.1569 105.336 46.7449C105.672 47.3329 105.84 48.0609 105.84 48.9289ZM103.656 48.9289C103.656 48.4529 103.6 48.0609 103.46 47.7529C103.348 47.4449 103.152 47.1929 102.928 47.0249C102.676 46.8569 102.396 46.7729 102.06 46.7729C101.724 46.7729 101.416 46.8569 101.192 47.0249C100.94 47.1929 100.772 47.4449 100.66 47.7529C100.548 48.0609 100.464 48.4529 100.464 48.9289C100.464 49.4049 100.52 49.7969 100.66 50.1049C100.772 50.4129 100.968 50.6649 101.192 50.8329C101.416 51.0009 101.724 51.0849 102.06 51.0849C102.396 51.0849 102.704 51.0009 102.928 50.8329C103.18 50.6649 103.348 50.4129 103.46 50.1049C103.6 49.7689 103.656 49.3769 103.656 48.9289Z" fill="url(#paint11_linear_871_5077)"/>
<path d="M107.212 52.7929V45.0369H109.312V51.0849H112.448V52.7929H107.212Z" fill="url(#paint12_linear_871_5077)"/>
<path d="M120.904 48.9289C120.904 49.7969 120.736 50.5249 120.4 51.1129C120.064 51.7009 119.616 52.1489 119.056 52.4569C118.496 52.7649 117.852 52.9049 117.152 52.9049C116.452 52.9049 115.808 52.7649 115.248 52.4569C114.688 52.1489 114.24 51.7009 113.904 51.1129C113.568 50.5249 113.4 49.7969 113.4 48.9289C113.4 48.0609 113.568 47.3329 113.904 46.7449C114.24 46.1569 114.688 45.7089 115.248 45.4009C115.808 45.0929 116.452 44.9529 117.152 44.9529C117.852 44.9529 118.496 45.0929 119.056 45.4009C119.616 45.7089 120.064 46.1569 120.4 46.7449C120.736 47.3329 120.904 48.0609 120.904 48.9289ZM118.748 48.9289C118.748 48.4529 118.692 48.0609 118.552 47.7529C118.44 47.4449 118.244 47.1929 118.02 47.0249C117.768 46.8569 117.488 46.7729 117.152 46.7729C116.816 46.7729 116.508 46.8569 116.284 47.0249C116.032 47.1929 115.864 47.4449 115.752 47.7529C115.64 48.0609 115.556 48.4529 115.556 48.9289C115.556 49.4049 115.612 49.7969 115.752 50.1049C115.864 50.4129 116.06 50.6649 116.284 50.8329C116.508 51.0009 116.816 51.0849 117.152 51.0849C117.488 51.0849 117.796 51.0009 118.02 50.8329C118.272 50.6649 118.44 50.4129 118.552 50.1049C118.692 49.7689 118.748 49.3769 118.748 48.9289Z" fill="url(#paint13_linear_871_5077)"/>
<path d="M127.344 47.6129C127.316 47.4729 127.26 47.3609 127.176 47.2489C127.092 47.1369 127.008 47.0529 126.924 46.9969C126.812 46.9129 126.7 46.8569 126.56 46.8289C126.42 46.8009 126.28 46.7729 126.112 46.7729C125.748 46.7729 125.468 46.8569 125.216 47.0249C124.964 47.1929 124.768 47.4449 124.656 47.7529C124.516 48.0609 124.46 48.4529 124.46 48.9009C124.46 49.3489 124.516 49.7409 124.656 50.0769C124.768 50.4129 124.964 50.6369 125.216 50.8049C125.468 50.9729 125.776 51.0569 126.14 51.0569C126.448 51.0569 126.728 51.0009 126.952 50.9169C127.176 50.8329 127.316 50.6929 127.428 50.5249C127.54 50.3569 127.596 50.1609 127.596 49.9089L127.96 49.9369H126.196V48.4529H129.64V49.5169C129.64 50.2169 129.5 50.8329 129.192 51.3369C128.884 51.8409 128.492 52.2329 127.96 52.4849C127.428 52.7369 126.84 52.8769 126.168 52.8769C125.412 52.8769 124.74 52.7089 124.18 52.4009C123.62 52.0929 123.172 51.6169 122.836 51.0289C122.528 50.4409 122.36 49.7409 122.36 48.9289C122.36 48.2849 122.444 47.7249 122.64 47.2209C122.836 46.7169 123.116 46.2969 123.452 45.9609C123.788 45.6249 124.208 45.3729 124.656 45.1769C125.104 45.0089 125.608 44.9249 126.112 44.9249C126.56 44.9249 127.008 44.9809 127.4 45.1209C127.792 45.2609 128.156 45.4289 128.436 45.6809C128.744 45.9329 128.996 46.2129 129.164 46.5209C129.36 46.8569 129.472 47.1929 129.5 47.5849H127.344V47.6129Z" fill="url(#paint14_linear_871_5077)"/>
<path d="M130.648 45.0369H132.972L134.484 48.2009H134.54L136.052 45.0369H138.404L135.576 50.3569V52.7929H133.476V50.3569L130.648 45.0369Z" fill="url(#paint15_linear_871_5077)"/>
<path d="M145.068 45.0369H147.14V50.3289C147.14 50.8329 147 51.2809 146.748 51.6449C146.496 52.0369 146.16 52.3169 145.712 52.5409C145.264 52.7649 144.76 52.8489 144.2 52.8489C143.696 52.8489 143.248 52.7649 142.828 52.5969C142.408 52.4289 142.1 52.1489 141.848 51.7849C141.596 51.4209 141.484 50.9169 141.484 50.3289H143.584C143.584 50.5249 143.612 50.6929 143.696 50.8329C143.752 50.9729 143.836 51.0569 143.948 51.1409C144.06 51.1969 144.172 51.2529 144.34 51.2529C144.508 51.2529 144.62 51.2249 144.732 51.1409C144.844 51.0849 144.928 50.9729 144.984 50.8329C145.04 50.6929 145.068 50.5249 145.068 50.3289V45.0369Z" fill="url(#paint16_linear_871_5077)"/>
<path d="M152.74 47.4729C152.712 47.2209 152.628 47.0249 152.46 46.8849C152.292 46.7449 152.04 46.6609 151.704 46.6609C151.48 46.6609 151.312 46.6889 151.172 46.7449C151.032 46.8009 150.92 46.8569 150.864 46.9409C150.808 47.0249 150.752 47.1369 150.752 47.2489C150.752 47.3329 150.752 47.4169 150.808 47.5009C150.836 47.5849 150.92 47.6409 151.004 47.6969C151.088 47.7529 151.2 47.8089 151.34 47.8649C151.48 47.9209 151.62 47.9489 151.816 48.0049L152.46 48.1449C152.88 48.2289 153.244 48.3689 153.552 48.5089C153.86 48.6489 154.112 48.8449 154.308 49.0409C154.504 49.2369 154.644 49.4609 154.728 49.7129C154.812 49.9649 154.868 50.2449 154.868 50.5249C154.868 51.0289 154.728 51.4769 154.476 51.8129C154.224 52.1769 153.86 52.4289 153.384 52.6249C152.908 52.8209 152.348 52.9049 151.704 52.9049C151.032 52.9049 150.444 52.7929 149.94 52.5969C149.436 52.4009 149.044 52.0929 148.764 51.6729C148.484 51.2529 148.344 50.7209 148.344 50.0769H150.332C150.332 50.3009 150.416 50.5249 150.5 50.6649C150.612 50.8329 150.752 50.9449 150.948 51.0289C151.144 51.1129 151.368 51.1409 151.648 51.1409C151.872 51.1409 152.068 51.1129 152.208 51.0569C152.348 51.0009 152.46 50.9169 152.544 50.8329C152.628 50.7209 152.656 50.6089 152.656 50.4969C152.656 50.3849 152.628 50.2729 152.544 50.1889C152.46 50.1049 152.348 50.0209 152.18 49.9369C152.012 49.8529 151.788 49.7969 151.508 49.7409L150.724 49.5729C150.052 49.4329 149.492 49.1809 149.1 48.8169C148.708 48.4809 148.512 48.0049 148.512 47.3889C148.512 46.8849 148.652 46.4649 148.904 46.1009C149.156 45.7369 149.548 45.4569 150.024 45.2329C150.5 45.0369 151.032 44.9249 151.648 44.9249C152.264 44.9249 152.824 45.0369 153.272 45.2329C153.72 45.4289 154.084 45.7369 154.336 46.1289C154.588 46.5209 154.7 46.9409 154.7 47.4449H152.74V47.4729Z" fill="url(#paint17_linear_871_5077)"/>
<path d="M163.296 47.9489H161.168C161.14 47.7809 161.112 47.6129 161.056 47.4729C161 47.3329 160.916 47.1929 160.804 47.1089C160.692 46.9969 160.552 46.9129 160.384 46.8569C160.216 46.8009 160.048 46.7729 159.852 46.7729C159.488 46.7729 159.208 46.8569 158.956 47.0249C158.704 47.1929 158.536 47.4449 158.396 47.7529C158.284 48.0609 158.2 48.4529 158.2 48.9009C158.2 49.3769 158.256 49.7689 158.396 50.0769C158.536 50.3849 158.704 50.6369 158.956 50.8049C159.208 50.9729 159.488 51.0569 159.824 51.0569C160.02 51.0569 160.188 51.0289 160.356 50.9729C160.496 50.9169 160.636 50.8609 160.748 50.7489C160.86 50.6649 160.944 50.5529 161.028 50.4129C161.112 50.2729 161.14 50.1329 161.168 49.9649L163.296 49.9929C163.268 50.3289 163.184 50.6649 163.016 51.0009C162.848 51.3369 162.624 51.6449 162.344 51.9249C162.064 52.2049 161.7 52.4289 161.252 52.6249C160.832 52.7929 160.328 52.8769 159.768 52.8769C159.068 52.8769 158.424 52.7369 157.864 52.4289C157.304 52.1209 156.856 51.6729 156.52 51.0849C156.184 50.4969 156.044 49.7689 156.044 48.9009C156.044 48.0329 156.212 47.3049 156.548 46.7169C156.884 46.1289 157.332 45.6809 157.892 45.3729C158.452 45.0649 159.096 44.9249 159.768 44.9249C160.244 44.9249 160.72 44.9809 161.112 45.1209C161.532 45.2609 161.896 45.4569 162.204 45.7089C162.512 45.9609 162.764 46.2689 162.96 46.6609C163.128 47.0529 163.268 47.4729 163.296 47.9489Z" fill="url(#paint18_linear_871_5077)"/>
</g>
<defs>
<linearGradient id="paint0_linear_871_5077" x1="67.1721" y1="-3.62551" x2="67.1721" y2="46.5696" gradientUnits="userSpaceOnUse">
<stop stop-color="#1E88E5"/>
<stop offset="1" stop-color="#0066FF"/>
</linearGradient>
<linearGradient id="paint1_linear_871_5077" x1="95.774" y1="-2.24386" x2="95.774" y2="46.1503" gradientUnits="userSpaceOnUse">
<stop stop-color="#1E88E5"/>
<stop offset="1" stop-color="#0066FF"/>
</linearGradient>
<linearGradient id="paint2_linear_871_5077" x1="124.698" y1="6.67166" x2="124.698" y2="44.2141" gradientUnits="userSpaceOnUse">
<stop stop-color="#1E88E5"/>
<stop offset="1" stop-color="#0066FF"/>
</linearGradient>
<linearGradient id="paint3_linear_871_5077" x1="152.362" y1="-7.87215" x2="152.362" y2="47.541" gradientUnits="userSpaceOnUse">
<stop stop-color="#1E88E5"/>
<stop offset="1" stop-color="#0066FF"/>
</linearGradient>
<linearGradient id="paint4_linear_871_5077" x1="17.472" y1="-12.2456" x2="17.472" y2="49.4016" gradientUnits="userSpaceOnUse">
<stop stop-color="#1E88E5"/>
<stop offset="1" stop-color="#0066FF"/>
</linearGradient>
<linearGradient id="paint5_linear_871_5077" x1="24.584" y1="2.13734" x2="24.584" y2="68.9564" gradientUnits="userSpaceOnUse">
<stop stop-color="#1E88E5"/>
<stop offset="1" stop-color="#0066FF"/>
</linearGradient>
<linearGradient id="paint6_linear_871_5077" x1="61.586" y1="42.383" x2="61.586" y2="55.1742" gradientUnits="userSpaceOnUse">
<stop stop-color="#1E88E5"/>
<stop offset="1" stop-color="#0066FF"/>
</linearGradient>
<linearGradient id="paint7_linear_871_5077" x1="68.95" y1="42.383" x2="68.95" y2="55.1742" gradientUnits="userSpaceOnUse">
<stop stop-color="#1E88E5"/>
<stop offset="1" stop-color="#0066FF"/>
</linearGradient>
<linearGradient id="paint8_linear_871_5077" x1="76.79" y1="42.2039" x2="76.79" y2="55.3184" gradientUnits="userSpaceOnUse">
<stop stop-color="#1E88E5"/>
<stop offset="1" stop-color="#0066FF"/>
</linearGradient>
<linearGradient id="paint9_linear_871_5077" x1="85.302" y1="42.383" x2="85.302" y2="55.1742" gradientUnits="userSpaceOnUse">
<stop stop-color="#1E88E5"/>
<stop offset="1" stop-color="#0066FF"/>
</linearGradient>
<linearGradient id="paint10_linear_871_5077" x1="93.562" y1="42.383" x2="93.562" y2="55.1742" gradientUnits="userSpaceOnUse">
<stop stop-color="#1E88E5"/>
<stop offset="1" stop-color="#0066FF"/>
</linearGradient>
<linearGradient id="paint11_linear_871_5077" x1="102.088" y1="42.232" x2="102.088" y2="55.3464" gradientUnits="userSpaceOnUse">
<stop stop-color="#1E88E5"/>
<stop offset="1" stop-color="#0066FF"/>
</linearGradient>
<linearGradient id="paint12_linear_871_5077" x1="109.83" y1="42.383" x2="109.83" y2="55.1742" gradientUnits="userSpaceOnUse">
<stop stop-color="#1E88E5"/>
<stop offset="1" stop-color="#0066FF"/>
</linearGradient>
<linearGradient id="paint13_linear_871_5077" x1="117.152" y1="42.232" x2="117.152" y2="55.3464" gradientUnits="userSpaceOnUse">
<stop stop-color="#1E88E5"/>
<stop offset="1" stop-color="#0066FF"/>
</linearGradient>
<linearGradient id="paint14_linear_871_5077" x1="126" y1="42.2039" x2="126" y2="55.3184" gradientUnits="userSpaceOnUse">
<stop stop-color="#1E88E5"/>
<stop offset="1" stop-color="#0066FF"/>
</linearGradient>
<linearGradient id="paint15_linear_871_5077" x1="134.526" y1="42.383" x2="134.526" y2="55.1742" gradientUnits="userSpaceOnUse">
<stop stop-color="#1E88E5"/>
<stop offset="1" stop-color="#0066FF"/>
</linearGradient>
<linearGradient id="paint16_linear_871_5077" x1="144.312" y1="42.3639" x2="144.312" y2="55.2474" gradientUnits="userSpaceOnUse">
<stop stop-color="#1E88E5"/>
<stop offset="1" stop-color="#0066FF"/>
</linearGradient>
<linearGradient id="paint17_linear_871_5077" x1="151.606" y1="42.1944" x2="151.606" y2="55.355" gradientUnits="userSpaceOnUse">
<stop stop-color="#1E88E5"/>
<stop offset="1" stop-color="#0066FF"/>
</linearGradient>
<linearGradient id="paint18_linear_871_5077" x1="159.67" y1="42.2039" x2="159.67" y2="55.3184" gradientUnits="userSpaceOnUse">
<stop stop-color="#1E88E5"/>
<stop offset="1" stop-color="#0066FF"/>
</linearGradient>
<clipPath id="clip0_871_5077">
<rect width="164.388" height="56" fill="white" transform="translate(0 0.544922)"/>
</clipPath>
</defs>
</svg>
